<svg width="10" height="10" viewBox="0 0 10 10" fill="none" xmlns="http://www.w3.org/2000/svg">
<path d="M8.89979 2.08381C8.68859 2.08381 8.48209 2.0227 8.30649 1.90822C8.13089 1.79373 7.99399 1.63101 7.91309 1.44063C7.83229 1.25024 7.81119 1.04075 7.85239 0.838638C7.89359 0.636526 7.99529 0.450877 8.14469 0.305165C8.29399 0.159452 8.48429 0.0602196 8.69149 0.0200202C8.89869 -0.0201792 9.11339 0.000447369 9.30859 0.0793063C9.50369 0.158165 9.67049 0.291711 9.78789 0.463055C9.90519 0.634389 9.96779 0.835831 9.96779 1.0419C9.96809 1.17881 9.94069 1.31442 9.88719 1.44097C9.83359 1.56752 9.75489 1.68249 9.65569 1.77929C9.55649 1.8761 9.43859 1.95283 9.30889 2.0051C9.17919 2.05735 9.04019 2.0841 8.89979 2.08381ZM4.27198 2.77816C4.83529 2.77816 5.38594 2.94111 5.85429 3.24643C6.32269 3.55173 6.68769 3.98568 6.90329 4.49339C7.11889 5.0011 7.17529 5.55977 7.06539 6.09875C6.95549 6.63775 6.68419 7.13284 6.28589 7.52137C5.88759 7.90999 5.3801 8.1746 4.82762 8.28179C4.27514 8.38908 3.70248 8.33407 3.18206 8.12375C2.66163 7.91343 2.21682 7.55733 1.90386 7.10033C1.59091 6.64342 1.42387 6.10623 1.42387 5.55669C1.42468 4.82002 1.725 4.11375 2.25895 3.59284C2.7929 3.07193 3.51686 2.77895 4.27198 2.77816ZM4.27198 1.38908C3.42706 1.38908 2.60112 1.63351 1.8986 2.09145C1.19607 2.54939 0.64852 3.20028 0.32519 3.96181C0.00184962 4.72334 -0.0827501 5.56132 0.0820899 6.36975C0.24692 7.17823 0.65379 7.92083 1.25124 8.50366C1.84868 9.08649 2.60988 9.48342 3.43856 9.64419C4.26724 9.80507 5.1262 9.72251 5.90679 9.40703C6.68739 9.09165 7.35459 8.55745 7.82399 7.8721C8.29339 7.18674 8.54399 6.38097 8.54399 5.55669C8.54399 4.45137 8.09389 3.39132 7.29269 2.60974C6.49159 1.82816 5.40498 1.38908 4.27198 1.38908Z" fill="white"/>
</svg>
