<svg width="19" height="15" viewBox="0 0 19 15" fill="none" xmlns="http://www.w3.org/2000/svg">
<path d="M18.3085 1.75822C17.6217 2.06053 16.895 2.25971 16.1515 2.34944C16.9329 1.88589 17.5205 1.14944 17.8042 0.278233C17.0654 0.715887 16.2585 1.02297 15.418 1.18632C15.0641 0.81053 14.6384 0.511588 14.1669 0.307653C13.6954 0.103717 13.1878 -0.00095286 12.6752 6.53604e-06C10.5994 6.53604e-06 8.91967 1.67707 8.91967 3.74442C8.9182 4.03197 8.95072 4.31868 9.01655 4.5984C7.52811 4.52771 6.07061 4.14304 4.73732 3.469C3.40402 2.79495 2.22429 1.84638 1.27358 0.683965C0.94006 1.2536 0.76367 1.90352 0.76285 2.56583C0.76285 3.86421 1.4315 5.01188 2.44113 5.68424C1.84295 5.66986 1.25703 5.50946 0.7331 5.21667V5.26304C0.7331 7.07922 2.02995 8.59012 3.74638 8.93403C3.42361 9.0212 3.091 9.06537 2.75695 9.06542C2.51993 9.06584 2.28344 9.04254 2.05093 8.99586C2.5281 10.4836 3.91687 11.5656 5.56197 11.5965C4.22521 12.6402 2.58402 13.2042 0.89635 13.2001C0.59679 13.1997 0.2975 13.1815 0 13.146C1.71687 14.2566 3.7126 14.8441 5.74963 14.8386C12.6672 14.8386 16.4463 9.13111 16.4463 4.18107C16.4463 4.01877 16.4421 3.85648 16.4345 3.69805C17.168 3.16945 17.8026 2.51255 18.3085 1.75822Z" fill="white"/>
</svg>
