<svg width="18" height="18" viewBox="0 0 18 18" fill="none" xmlns="http://www.w3.org/2000/svg">
<path d="M8.68153 0C3.88731 0 0 3.93643 0 8.79124C0 12.3902 2.13938 15.4828 5.19729 16.8446C5.17404 16.2324 5.19341 15.4946 5.34844 14.8274C5.5151 14.1131 6.46464 10.0354 6.46464 10.0354C6.46464 10.0354 6.18559 9.47413 6.18559 8.64602C6.18559 7.34304 6.92972 6.36972 7.85988 6.36972C8.65052 6.36972 9.03034 6.97019 9.03034 7.68841C9.03034 8.49297 8.52262 9.69391 8.26295 10.8086C8.04591 11.7426 8.72416 12.5 9.63494 12.5C11.2782 12.5 12.3867 10.3611 12.3867 7.82578C12.3867 5.89877 11.1038 4.45842 8.77454 4.45842C6.14296 4.45842 4.49967 6.44822 4.49967 8.66958C4.49967 9.43488 4.72446 9.97648 5.07327 10.3925C5.23217 10.5848 5.25543 10.6633 5.19729 10.8831C5.15466 11.044 5.06164 11.4325 5.01901 11.5895C4.96087 11.8132 4.78259 11.8918 4.58493 11.8093C3.37185 11.3069 2.806 9.96471 2.806 8.44979C2.806 5.95371 4.88724 2.9592 9.01096 2.9592C12.3247 2.9592 14.5067 5.38856 14.5067 7.99454C14.5067 11.4443 12.6115 14.0188 9.82098 14.0188C8.88306 14.0188 8.00328 13.5048 7.70098 12.9239C7.70098 12.9239 7.19714 14.9491 7.08862 15.3415C6.90646 16.0205 6.54603 16.6955 6.21659 17.2254C7.01571 17.4641 7.84448 17.5856 8.67765 17.5864C13.4719 17.5864 17.3592 13.65 17.3592 8.79516C17.3592 3.94036 13.4757 0 8.68153 0Z" fill="white"/>
</svg>
